<?xml version="1.0" encoding="utf-8"?>
<!-- Generator: Adobe Illustrator 26.5.0, SVG Export Plug-In . SVG Version: 6.00 Build 0)  -->
<svg version="1.1" xmlns="http://www.w3.org/2000/svg" xmlns:xlink="http://www.w3.org/1999/xlink" x="0px" y="0px"
	 viewBox="0 0 70 70" style="enable-background:new 0 0 70 70;" xml:space="preserve">
<style type="text/css">
	.st0{fill:#724424;}
	.st1{fill:#4F2F17;}
	.st2{fill:#E79032;}
	.st3{fill:#271D10;}
	.st4{fill:#BF6D20;}
	.st5{fill:#BD5922;}
	.st6{fill:#BD5823;}
	.st7{fill:#33302D;}
</style>
<g id="Poop_00000098209397488899285240000011106758874385278371_">
</g>
<g id="Dog">
	<g id="Dog_00000008129401959985262010000002347172906549887678_">
		<g>
			<rect x="18" y="32" class="st2" width="38" height="12"/>
			<rect x="8" y="46" class="st3" width="2" height="2"/>
			<rect x="10" y="46" class="st3" width="2" height="2"/>
			<rect x="10" y="44" class="st3" width="2" height="2"/>
			<rect x="12" y="41" class="st3" width="2" height="5"/>
			<rect x="14" y="38" class="st3" width="2" height="5"/>
			<rect x="16" y="35" class="st4" width="2" height="10"/>
			<rect x="15" y="49" class="st5" width="4" height="10"/>
			<rect x="13" y="52" class="st5" width="3" height="9"/>
			<rect x="23" y="49" class="st5" width="3" height="3"/>
			<rect x="15" y="58" class="st5" width="2" height="2"/>
			<rect x="14" y="60" class="st5" width="6" height="2"/>
			<rect x="18" y="38" class="st4" width="3" height="5"/>
			<rect x="18" y="39" class="st4" width="6" height="11"/>
			<rect x="25" y="39" class="st4" width="3" height="7"/>
			<rect x="17" y="29" class="st3" width="23" height="7"/>
			<rect x="37" y="35" class="st3" width="2" height="6"/>
			<rect x="45" y="19" class="st2" width="15" height="15"/>
			<rect x="35" y="36" class="st3" width="2" height="5"/>
			<rect x="33" y="36" class="st3" width="2" height="3"/>
			<rect x="31" y="36" class="st3" width="2" height="2"/>
			<rect x="29" y="35" class="st3" width="2" height="2"/>
			<rect x="40" y="29" class="st3" width="3" height="8"/>
			<rect x="39" y="35" class="st3" width="2" height="4"/>
			<rect x="43" y="26" class="st3" width="3" height="8"/>
			<polygon class="st6" points="58.9,9 55,14.5 55,19 61,19 61,12 			"/>
			<rect x="24" y="46" class="st5" width="6" height="15"/>
			<rect x="30" y="45" class="st5" width="2" height="7"/>
			<rect x="28" y="44" class="st4" width="14" height="2"/>
			<rect x="41" y="43" class="st2" width="6" height="18"/>
			<rect x="49" y="44" class="st2" width="6" height="17"/>
			<rect x="45" y="43" class="st2" width="5" height="5"/>
			<rect x="44" y="57" class="st2" width="13" height="5"/>
			<rect x="59" y="26" class="st3" width="2" height="2"/>
			<rect x="57" y="28" class="st7" width="7" height="4"/>
			<rect x="55" y="30" class="st7" width="7" height="4"/>
			<rect x="57" y="26" class="st7" width="4" height="3"/>
			<rect x="22" y="41" class="st4" width="3" height="7"/>
			<rect x="54" y="37" class="st4" width="2" height="8"/>
			<rect x="45" y="47" class="st4" width="5" height="3"/>
			<rect x="40" y="56" class="st4" width="2" height="5"/>
			<rect x="49" y="57" class="st4" width="2" height="4"/>
			<rect x="56" y="58" class="st4" width="2" height="4"/>
			<rect x="47" y="57" class="st4" width="2" height="4"/>
			<rect x="44" y="18" class="st4" width="2" height="8"/>
			<rect x="45" y="19" class="st6" width="3" height="2"/>
			<polygon class="st6" points="49.8,9 44,14.5 44,19 53,19 53,12 			"/>
			<rect x="53" y="24" class="st4" width="1" height="3"/>
			<rect x="57" y="24" class="st4" width="2" height="4"/>
			<rect x="19" y="43" class="st4" width="2" height="9"/>
			<rect x="19" y="45" class="st4" width="3" height="7"/>
		</g>
		<rect x="7" y="48" width="5" height="2"/>
		<rect x="7" y="44" width="2" height="4"/>
		<rect x="16" y="30" width="2" height="2"/>
		<rect x="9" y="41" width="2" height="5"/>
		<rect x="11" y="38" width="2" height="6"/>
		<rect x="13" y="35" width="2" height="6"/>
		<rect x="15" y="32" width="2" height="6"/>
		<rect x="17" y="28" width="2" height="2"/>
		<rect x="19" y="27" width="24" height="2"/>
		<rect x="40" y="26" width="2" height="3"/>
		<rect x="42" y="23" width="2" height="4"/>
		<rect x="43" y="15" width="2" height="11"/>
		<rect x="44" y="11" width="2" height="4"/>
		<rect x="46" y="9" width="2" height="4"/>
		<rect x="48" y="7" width="2" height="4"/>
		<rect x="51" y="11" transform="matrix(-1 2.770775e-09 -2.770775e-09 -1 104 30)" width="2" height="8"/>
		<rect x="50" y="9" transform="matrix(-1 1.385160e-09 -1.385160e-09 -1 102 22)" width="2" height="4"/>
		<rect x="51" y="17" width="4" height="2"/>
		<rect x="54" y="11" transform="matrix(-1 2.770775e-09 -2.770775e-09 -1 110 30)" width="2" height="8"/>
		<rect x="56" y="9" width="2" height="4"/>
		<rect x="58" y="7" width="2" height="4"/>
		<rect x="60" y="9" transform="matrix(-1 3.808964e-09 -3.808964e-09 -1 122 29)" width="2" height="11"/>
		<rect x="55" y="44" transform="matrix(-1 6.925801e-10 -6.925801e-10 -1 112 90)" width="2" height="2"/>
		<rect x="54" y="45" transform="matrix(-1 4.155481e-09 -4.155481e-09 -1 110 102)" width="2" height="12"/>
		<rect x="12" y="46" width="2" height="4"/>
		<rect x="14" y="43" width="2" height="3"/>
		<rect x="16" y="45" width="2" height="4"/>
		<rect x="15" y="48" width="2" height="2"/>
		<rect x="14" y="50" width="2" height="2"/>
		<rect x="16" y="45" width="2" height="1"/>
		<rect x="11" y="52" width="4" height="2"/>
		<rect x="11" y="54" width="2" height="7"/>
		<rect x="13" y="61" width="7" height="2"/>
		<rect x="19" y="52" width="2" height="2"/>
		<rect x="55" y="57" width="3" height="2"/>
		<rect x="17" y="54" width="2" height="6"/>
		<rect x="18" y="59" width="2" height="2"/>
		<rect x="47" y="48" width="2" height="2"/>
		<rect x="21" y="50" width="2" height="2"/>
		<rect x="23" y="48" width="2" height="2"/>
		<rect x="25" y="46" width="2" height="2"/>
		<rect x="22" y="52" width="2" height="6"/>
		<rect x="24" y="56" width="2" height="5"/>
		<rect x="25" y="61" width="7" height="2"/>
		<rect x="30" y="59" width="2" height="4"/>
		<rect x="29" y="54" width="2" height="6"/>
		<rect x="30" y="52" width="2" height="2"/>
		<rect x="31" y="46" width="2" height="6"/>
		<rect x="33" y="46" width="8" height="2"/>
		<rect x="48" y="59" width="2" height="2"/>
		<rect x="46" y="57" width="4" height="2"/>
		<rect x="45" y="49" width="2" height="8"/>
		<rect x="48" y="49" width="2" height="12"/>
		<rect x="39" y="46" width="2" height="15"/>
		<rect x="59" y="20" transform="matrix(-1 2.078195e-09 -2.078195e-09 -1 120 46)" width="2" height="6"/>
		<rect x="56" y="34" transform="matrix(-1 3.463356e-09 -3.463356e-09 -1 114 78)" width="2" height="10"/>
		<rect x="56" y="34" transform="matrix(-1 2.308601e-10 -2.308601e-10 -1 118 70)" width="6" height="2"/>
		<rect x="64" y="28" transform="matrix(-1 1.385160e-09 -1.385160e-09 -1 130 60)" width="2" height="4"/>
		<rect x="61" y="26" transform="matrix(-1 3.462900e-10 -3.462900e-10 -1 126 54)" width="4" height="2"/>
		<rect x="62" y="32" width="2" height="2"/>
		<rect x="57" y="59" width="2" height="2"/>
		<rect x="41" y="61" width="18" height="2"/>
		<rect x="51" y="24" width="2" height="3"/>
		<rect x="50" y="25" width="2" height="2"/>
		<rect x="56" y="24" width="2" height="3"/>
		<rect x="50" y="18" width="2" height="2"/>
		<rect x="48" y="19" width="3" height="2"/>
		<rect x="56" y="18" width="4" height="2"/>
		<rect x="44" y="26" width="2" height="2"/>
		<rect x="45" y="28" width="2" height="6"/>
		<rect x="46" y="33" width="2" height="2"/>
		<rect x="47" y="34" width="2" height="4"/>
	</g>
</g>
<g id="Title">
</g>
</svg>
