<?xml version="1.0" encoding="UTF-8" standalone="no"?>
<!-- Created with Inkscape (http://www.inkscape.org/) -->

<svg
   xmlns:svg="http://www.w3.org/2000/svg"
   xmlns="http://www.w3.org/2000/svg"
   version="1.1"
   width="175.74901"
   height="45.921001"
   viewBox="0 0 175.749 45.921001"
   id="Ebene_1"
   xml:space="preserve"><defs
   id="defs47" />
<g
   transform="translate(-209.50501,-398.308)"
   id="g3">
	
	<path
   d="m 222.403,406.747 c 0.121,-0.027 0.246,-0.053 0.375,-0.079 3.143,-0.632 5.784,-0.359 7.801,0.73 2.051,1.108 3.434,3.04 4.023,5.705 h 0.002 c 0.015,0.07 0.031,0.146 0.047,0.226 l 10e-4,0.006 c 0.106,0.531 0.146,1.079 0.124,1.63 -0.022,0.544 -0.104,1.099 -0.243,1.648 -0.704,2.797 -2.879,5.442 -5.853,6.224 l -2.444,0.644 1.6,7.952 0.123,0.607 -0.612,0.119 -0.006,0.001 c -0.501,0.097 -1.072,0.208 -1.712,0.335 -0.498,0.098 -1.055,0.209 -1.693,0.338 -2.956,0.596 -5.747,1.188 -8.373,1.772 l -0.604,0.135 -0.132,-0.604 -5.193,-23.891 -0.129,-0.593 0.594,-0.137 h 0.001 l 0,-10e-4 c 0.455,-0.109 1.006,-0.241 1.642,-0.391 0.469,-0.11 1.026,-0.242 1.67,-0.391 2.875,-0.667 5.877,-1.331 8.993,-1.982 l -0.002,-0.003 0,0 z m 49.329,5.734 10.903,4.686 0.565,0.243 -0.242,0.565 -0.001,0.003 v 0.002 c -0.297,0.689 -0.641,1.337 -1.027,1.94 -0.386,0.602 -0.814,1.157 -1.28,1.665 -2.395,2.611 -5.781,3.959 -9.684,3.959 h -0.001 c -3.75,0 -7.155,-1.53 -9.621,-3.996 -2.466,-2.466 -3.995,-5.87 -3.996,-9.619 v -0.003 -10e-4 c 10e-4,-3.75 1.53,-7.154 3.997,-9.621 2.466,-2.466 5.87,-3.995 9.619,-3.996 h 0.003 0.002 c 2.285,0 4.518,0.586 6.493,1.65 0.322,0.173 0.637,0.359 0.941,0.556 1.577,1.018 2.951,2.362 3.999,3.967 l 0.33,0.504 -0.499,0.339 -10.501,7.157 0,0 z m -28.339,-8.288 16.693,22.064 0.651,0.86 -1.073,0.124 -0.01,0.001 c -1.202,0.139 -2.44,0.288 -3.71,0.446 -1.36,0.17 -2.584,0.328 -3.667,0.473 -6.218,0.833 -12.267,1.789 -18.067,2.82 l -1.026,0.183 0.337,-0.988 8.797,-25.81 0.375,-1.1 0.7,0.927 0,0 z"
   id="path7" />
	<path
   d="m 270.457,412.605 11.935,5.129 c -2.032,4.723 -6.246,7.193 -11.425,7.193 -7.161,0 -13.001,-5.84 -13.001,-13.001 0,-7.161 5.84,-13.001 13.001,-13.001 4.367,0 8.531,2.234 10.918,5.891 l -11.428,7.789 0,0 z m -27.556,-8.041 16.693,22.064 c -8.893,1.027 -17.454,2.316 -25.491,3.746 l 8.798,-25.81 0,0 z m -20.365,2.786 c 6.284,-1.389 10.461,0.885 11.509,6.1 0.691,3.437 -1.706,7.789 -5.521,8.792 -1.069,0.281 -1.939,0.51 -3.008,0.791 0.571,2.841 1.143,5.681 1.714,8.521 -4.106,0.793 -8.049,1.616 -11.801,2.451 -1.731,-7.963 -3.463,-15.927 -5.194,-23.891 3.871,-0.931 7.983,-1.861 12.301,-2.764 l 0,0 z"
   id="path9"
   style="fill:#88cbda;fill-rule:evenodd" />
	<path
   d="m 226.961,408.213 c 0.224,-0.051 0.441,-0.097 0.651,-0.136 3.053,-0.58 5.625,-0.253 7.6,0.894 1.998,1.159 3.362,3.137 3.977,5.847 0.036,0.157 0.068,0.312 0.097,0.463 l 0.001,0.007 c 0.107,0.564 0.147,1.142 0.125,1.719 -0.021,0.578 -0.104,1.163 -0.242,1.742 -0.707,2.965 -2.894,5.76 -5.887,6.573 l -2.479,0.672 1.62,8.531 0.114,0.599 -0.599,0.12 -0.006,10e-4 h -0.002 c -0.512,0.102 -1.083,0.216 -1.724,0.346 -0.851,0.172 -1.42,0.287 -1.704,0.346 -2.88,0.595 -5.696,1.209 -8.431,1.834 l -0.614,0.141 -0.127,-0.618 -5.23,-25.492 -0.12,-0.584 0.581,-0.139 0.005,-0.001 v 0.001 c 0.451,-0.112 1.002,-0.247 1.648,-0.404 0.799,-0.194 1.38,-0.335 1.682,-0.407 2.88,-0.691 5.906,-1.379 9.064,-2.055 l 0,0 0,0 z m 48.847,6.871 9.979,5.463 0.494,0.271 -0.221,0.513 c -0.006,0.014 -0.021,0.047 -0.074,0.164 -0.302,0.676 -0.653,1.299 -1.047,1.87 -0.398,0.579 -0.835,1.102 -1.307,1.567 -2.41,2.384 -5.792,3.471 -9.577,3.444 -0.068,0 -0.129,-10e-4 -0.185,-0.003 -1.025,-0.02 -2.025,-0.154 -2.986,-0.391 -0.957,-0.235 -1.872,-0.573 -2.732,-1 -4.392,-2.18 -7.37,-6.693 -7.37,-11.968 0,-0.062 0,-0.121 0.001,-0.179 v -0.002 c 0.044,-3.622 1.415,-6.9 3.68,-9.281 2.272,-2.389 5.443,-3.873 9.077,-3.897 0.06,0 0.12,0 0.18,0 0.069,0 0.133,0.001 0.188,0.003 0.642,0.019 1.271,0.111 1.884,0.267 0.604,0.153 1.195,0.37 1.771,0.64 2.843,1.335 5.217,3.964 6.936,6.609 l 0.35,0.538 -0.552,0.328 -8.489,5.044 0,0 z m -28.86,-10.596 18.273,24.482 0.634,0.85 -1.054,0.132 c -0.012,10e-4 -0.007,0 0,-10e-4 h 0 c -0.002,0 -0.005,10e-4 -0.009,0.002 l 0,0 c -1.487,0.185 -2.838,0.357 -4.061,0.52 -1.273,0.17 -2.613,0.354 -4.013,0.554 -6.844,0.975 -13.464,2.078 -19.78,3.261 l -1.029,0.192 0.332,-0.993 9.63,-28.824 0.374,-1.118 0.703,0.943 0,0 z"
   id="path11" />
	<path
   d="m 274.565,415.105 10.928,5.982 c -2.004,4.646 -6.325,6.707 -11.436,6.672 -7.064,-0.049 -12.657,-5.68 -12.657,-12.744 0,-7.064 5.254,-12.79 12.318,-12.741 4.309,0.029 7.909,3.613 10.264,7.236 l -9.417,5.595 0,0 z m -28.111,-10.248 18.273,24.482 c -9.734,1.203 -19.106,2.695 -27.903,4.342 l 9.63,-28.824 0,0 z m -19.366,3.958 c 6.329,-1.436 10.535,1.016 11.592,6.58 0.696,3.667 -1.718,8.288 -5.561,9.331 -1.076,0.291 -1.953,0.529 -3.029,0.821 0.575,3.03 1.151,6.061 1.726,9.091 -4.135,0.817 -8.106,1.667 -11.885,2.531 -1.744,-8.497 -3.487,-16.995 -5.231,-25.492 3.899,-0.967 8.04,-1.929 12.388,-2.862 l 0,0 z"
   id="path13"
   style="fill:#e31b1f;fill-rule:evenodd" />
	<path
   d="m 345.666,406.347 7.329,26.577 0.288,1.044 -1.043,-0.284 c 0,0 -0.001,-0.001 -0.002,-0.001 -0.002,0 -0.003,-10e-4 -0.005,-10e-4 0.002,0 0.004,10e-4 0.002,0 -1.182,-0.299 -2.306,-0.578 -3.369,-0.835 -1.1,-0.267 -2.248,-0.538 -3.444,-0.814 -5.961,-1.375 -12.193,-2.636 -18.577,-3.701 l -1.075,-0.181 0.708,-0.828 18.127,-21.212 0.753,-0.881 0.308,1.117 0,0 z m 15.231,2.55 8.22,16.399 3.735,-13.327 0.167,-0.597 0.595,0.17 0.005,0.001 v 0 c 0.33,0.093 0.608,0.172 0.849,0.24 0.326,0.093 0.692,0.198 1.085,0.311 1.917,0.553 4.672,1.358 6.522,1.903 l 0.588,0.173 -0.171,0.589 -6.907,23.796 -0.171,0.591 -0.588,-0.169 c 0.002,0.001 0.007,0.002 0.011,0.003 l -0.011,-0.004 -0.001,10e-4 0,0 0,0 0,0 h 0.001 c -0.001,0 -0.001,0 -0.001,0 l -0.007,-0.003 c -0.761,-0.223 -1.606,-0.465 -2.542,-0.729 -0.788,-0.223 -1.662,-0.464 -2.633,-0.729 -4.608,-1.258 -9.58,-2.505 -14.813,-3.681 l -0.629,-0.142 0.168,-0.618 6.528,-24.178 0,0 z m -57.81,-9.182 11.181,14.527 13.544,-11.438 -2.452,23.603 -0.067,0.624 -0.623,-0.079 c -4.076,-0.514 -8.037,-0.97 -11.956,-1.367 -3.839,-0.389 -7.686,-0.722 -11.621,-0.998 l -0.64,-0.045 0.068,-0.638 2.566,-24.189 0,0 z"
   id="path15" />
	<path
   d="m 345.073,406.511 7.329,26.577 c -7.975,-2.02 -16.569,-3.882 -25.456,-5.365 l 18.127,-21.212 0,0 z m -41.517,-5.181 10.618,13.799 12.938,-10.897 -2.366,22.109 c -8.188,-1.032 -15.868,-1.829 -23.613,-2.374 l 2.423,-22.637 0,0 z m 57.513,9.33 8.212,16.335 4.165,-14.86 c 1.677,0.47 5.996,1.729 8.455,2.454 l -6.907,23.797 c -5.952,-1.735 -12.712,-3.505 -20.028,-5.149 l 6.103,-22.577 0,0 z"
   id="path17"
   style="fill:#88cbda;fill-rule:evenodd" />
	<path
   d="m 364.736,410.039 8.063,16.645 2.903,-9.611 0.181,-0.598 0.596,0.188 0.004,10e-4 c 0.004,0.001 0.278,0.09 0.826,0.267 0.502,0.163 0.893,0.289 1.055,0.342 2.037,0.664 4.673,1.533 6.327,2.083 l 0.563,0.187 -0.162,0.568 -6.702,23.497 -0.177,0.621 -0.609,-0.203 -0.004,-0.002 c -0.802,-0.264 -1.623,-0.53 -2.464,-0.799 -0.943,-0.301 -1.8,-0.572 -2.555,-0.806 -4.455,-1.382 -9.277,-2.768 -14.373,-4.096 l -0.595,-0.155 0.008,-0.031 -0.824,-0.212 -0.006,-0.002 -0.003,-0.003 c -1.139,-0.299 -2.369,-0.613 -3.69,-0.945 -1.209,-0.303 -2.463,-0.61 -3.763,-0.92 -6.515,-1.558 -13.323,-2.985 -20.287,-4.189 l -0.67,-0.115 -10e-4,0.004 -0.64,-0.103 c -3.94,-0.629 -7.867,-1.147 -11.756,-1.593 -3.782,-0.433 -7.63,-0.803 -11.459,-1.143 l -0.624,-0.056 0.064,-0.625 3.003,-29.158 11.229,16.238 13.175,-11.948 -2.924,27.739 -0.005,0.046 0.235,-0.285 19.794,-23.992 0.763,-0.924 0.308,1.158 8.004,30.06 0.165,0.62 0.055,-0.214 6.972,-27.536 0,0 z"
   id="path19" />
	<path
   d="m 364.962,411.869 7.969,16.508 3.361,-11.125 c 1.627,0.517 5.819,1.897 8.204,2.69 l -6.702,23.498 c -5.775,-1.902 -12.335,-3.861 -19.434,-5.712 l 6.602,-25.859 0,0 z m -57.548,-11.048 10.675,15.422 12.501,-11.345 -2.758,26.146 c -7.937,-1.269 -15.729,-2.077 -23.258,-2.746 l 2.84,-27.477 0,0 z m 41.531,6.445 8.003,30.061 c -8.708,-2.284 -18.094,-4.391 -27.798,-6.068 l 19.795,-23.993 0,0 z"
   id="path21"
   style="fill:#e31b1f;fill-rule:evenodd" />
	<polygon
   points="300.562,417.659 300.562,418.276 299.945,418.276 291.005,418.276 290.388,418.276 290.388,417.659 290.388,412.706 290.388,412.088 291.005,412.088 291.005,412.088 299.945,412.088 300.562,412.088 300.562,412.706 "
   id="polygon23" />
	<polygon
   points="291.005,412.706 291.005,412.706 299.945,412.706 299.945,417.659 291.005,417.659 "
   id="polygon25"
   style="fill:#e31b1f;fill-rule:evenodd" />
	<polygon
   points="296.997,413.895 296.997,414.513 296.379,414.513 287.72,414.513 287.102,414.513 287.102,413.895 287.102,409.31 287.102,408.693 287.72,408.693 287.72,408.693 296.379,408.693 296.997,408.693 296.997,409.31 "
   id="polygon27" />
	<polygon
   points="287.719,409.31 287.719,409.31 296.379,409.31 296.379,413.895 287.719,413.895 "
   id="polygon29"
   style="fill:#88cbda;fill-rule:evenodd" />
	<path
   d="m 245.634,405.302 16.693,22.064 1.115,1.474 -1.839,0.213 -0.01,10e-4 c -1.169,0.136 -2.407,0.284 -3.706,0.446 -1.46,0.183 -2.682,0.34 -3.665,0.472 -6.189,0.829 -12.234,1.784 -18.048,2.818 l -1.759,0.313 0.578,-1.693 8.797,-25.809 0.643,-1.886 1.201,1.587 0,0 z m 28.936,8.321 10.123,4.351 0.969,0.416 -0.416,0.969 -10e-4,0.002 v 0.004 c -0.306,0.71 -0.671,1.392 -1.088,2.039 -0.423,0.657 -0.889,1.263 -1.389,1.816 -2.617,2.892 -6.394,4.654 -10.428,4.654 h -10e-4 c -3.872,0 -7.387,-1.579 -9.933,-4.126 -2.546,-2.546 -4.124,-6.06 -4.125,-9.93 v -0.002 -0.002 c 0,-3.872 1.58,-7.387 4.126,-9.933 2.545,-2.545 6.06,-4.124 9.93,-4.125 h 0.003 0.002 c 2.357,0 4.663,0.605 6.701,1.704 0.332,0.178 0.655,0.37 0.97,0.573 1.628,1.051 3.047,2.439 4.13,4.098 l 0.576,0.882 -0.886,0.577 -9.263,6.033 0,0 z m -49.844,-5.931 c 0.244,-0.054 0.367,-0.081 0.369,-0.081 3.246,-0.653 5.989,-0.365 8.096,0.775 2.167,1.17 3.626,3.202 4.244,5.999 l 0.004,0.004 c 0.022,0.102 0.039,0.181 0.049,0.229 l 0.001,0.006 c 0.113,0.567 0.156,1.149 0.132,1.733 -0.023,0.571 -0.11,1.156 -0.257,1.738 -0.74,2.938 -3.03,5.719 -6.167,6.543 l -2.042,0.536 1.518,7.547 0.209,1.042 -1.049,0.203 -0.006,10e-4 c -0.421,0.081 -1.017,0.198 -1.711,0.335 -0.435,0.086 -1.007,0.2 -1.691,0.338 -3.002,0.605 -5.789,1.196 -8.364,1.77 l -1.035,0.23 -0.226,-1.036 -5.194,-23.892 -0.221,-1.018 1.016,-0.234 0,-0.002 c 0.374,-0.09 0.928,-0.222 1.644,-0.391 0.402,-0.095 0.951,-0.223 1.671,-0.39 2.872,-0.666 5.879,-1.331 9.01,-1.985 l 0,0 0,0 z"
   id="path31" />
	<path
   d="m 272.341,413.816 11.935,5.129 c -2.032,4.723 -6.754,7.871 -11.935,7.871 -7.161,0 -13.001,-5.84 -13.001,-13 0,-7.161 5.84,-13.001 13.001,-13.001 4.367,0 8.532,2.234 10.918,5.891 l -10.918,7.11 0,0 z m -47.401,-5.091 c 6.284,-1.389 10.461,0.884 11.51,6.1 0.691,3.437 -1.706,7.79 -5.521,8.792 -1.068,0.28 -1.938,0.51 -3.007,0.791 0.571,2.84 1.143,5.681 1.714,8.521 -4.106,0.794 -8.049,1.617 -11.801,2.452 -1.731,-7.964 -3.462,-15.927 -5.193,-23.891 3.869,-0.932 7.98,-1.862 12.298,-2.765 l 0,0 z m 19.85,-2.786 16.693,22.064 c -8.893,1.026 -17.454,2.315 -25.491,3.745 l 8.798,-25.809 0,0 z"
   id="path33"
   style="fill:#fcca2f;fill-rule:evenodd" />
	<path
   d="m 328.011,428.226 18.127,-21.213 1.291,-1.51 0.528,1.916 7.329,26.577 0.358,1.303 0.167,-0.631 6.689,-25.117 7.95,16.559 3.292,-12.001 0.292,-1.065 1.047,0.334 c 1.177,0.375 3.679,1.198 5.878,1.926 0.428,0.142 0.844,0.28 1.237,0.411 0.847,0.281 -0.69,-0.229 1.067,0.358 v -10e-4 c 0.046,0.014 0.029,0.008 0.034,0.01 l 0.962,0.32 -0.275,0.97 -6.702,23.584 -0.303,1.065 -1.045,-0.346 c -4.162,-1.376 -8.713,-2.776 -13.553,-4.137 -0.83,-0.233 -1.785,-0.497 -2.874,-0.793 -1.188,-0.322 -2.177,-0.587 -2.936,-0.785 l -0.005,-0.002 -1.026,-0.268 0,0 -1.529,-0.388 c -5.727,-1.45 -11.77,-2.818 -18.003,-4.021 -1.334,-0.257 -2.555,-0.486 -3.661,-0.686 -1.126,-0.202 -2.357,-0.416 -3.702,-0.641 l -0.007,-0.001 -1.393,-0.232 -0.002,0.02 -1.082,-0.147 c -3.97,-0.539 -7.83,-1.02 -11.653,-1.438 -3.702,-0.405 -7.448,-0.755 -11.325,-1.049 l -1.078,-0.082 0.107,-1.08 2.715,-26.601 11.228,15.812 13.796,-12.671 -2.599,26.167 -0.038,0.39 0.697,-0.816 0,0 z"
   id="path35" />
	<path
   d="m 346.94,407.7 -18.126,21.212 c 8.886,1.483 17.48,3.346 25.455,5.365 l -7.329,-26.577 0,0 z m -41.313,-5.499 -2.363,23.847 c 7.557,0.573 15.05,1.412 23.04,2.499 l 2.308,-23.289 -12.624,11.479 -10.361,-14.536 0,0 z m 57.128,10.347 -5.922,22.389 c 7.098,1.857 13.657,3.824 19.434,5.733 l 6.702,-23.585 c -2.386,-0.796 -6.578,-2.182 -8.205,-2.7 l -4.041,14.731 -7.968,-16.568 0,0 z"
   id="path37"
   style="fill:#fcca2f;fill-rule:evenodd" />
	<path
   d="m 225.875,415.024 c 0.939,0 1.705,0.766 1.705,1.705 0,0.939 -0.765,1.705 -1.705,1.705 -0.939,0 -1.705,-0.766 -1.705,-1.705 0,-0.939 0.767,-1.705 1.705,-1.705 l 0,0 z m 7.825,-1.174 c 0.096,0.319 0.178,0.646 0.244,0.975 0.691,3.228 -1.083,5.891 -6.152,6.998 -1.068,0.28 -2.104,0.49 -3.172,0.771 0.571,2.84 1.122,5.568 1.694,8.409 -2.542,0.49 -4.927,1.024 -7.29,1.535 l 0.176,0.951 c 2.719,-0.596 5.535,-1.184 8.437,-1.759 -0.568,-2.824 -1.144,-5.687 -1.712,-8.511 1.069,-0.281 2.104,-0.49 3.173,-0.771 4.598,-1.159 6.529,-4.396 5.838,-7.624 -0.082,-0.408 -0.186,-0.806 -0.31,-1.191 l -0.926,0.217 0,0 z m 18.009,13.812 c 2.309,-0.323 4.647,-0.63 7.01,-0.919 l -0.702,-0.928 -4.468,-5.907 -1.274,0.188 4.433,5.859 c -1.706,0.218 -3.525,0.485 -5.202,0.721 l 0.203,0.986 0,0 z m 21.301,-11.96 9.267,3.717 0.074,0.03 -0.034,0.072 -0.001,0.002 0,0 0,0 0,0 c -0.132,0.288 -0.279,0.568 -0.438,0.839 -0.161,0.274 -0.334,0.538 -0.518,0.789 -0.952,1.305 -2.23,2.37 -3.702,3.108 l -0.056,0.028 -0.039,-0.05 -0.593,-0.768 -0.058,-0.076 0.086,-0.04 0.002,-0.001 0,0 c 0.238,-0.108 0.471,-0.226 0.699,-0.352 0.225,-0.125 0.446,-0.258 0.662,-0.4 1.074,-0.707 1.98,-1.607 2.62,-2.648 l -8.025,-3.083 -0.049,-0.019 v -0.05 l -0.003,-1.028 v -0.113 l 0.106,0.043 0,0 z m 44.784,10.173 c 2.186,0.257 4.396,0.534 6.643,0.832 0.244,-2.47 0.489,-4.939 0.734,-7.409 l -1.071,-0.156 -0.636,6.413 c -1.811,-0.236 -3.799,-0.474 -5.571,-0.682 l -0.099,1.002 0,0 z m 26.98,4.556 c 2.376,0.527 4.714,1.074 7.003,1.635 -0.746,-2.71 -1.494,-5.42 -2.241,-8.13 l -1.073,-0.226 1.933,7.006 c -1.777,-0.428 -3.582,-0.846 -5.409,-1.253 l -0.213,0.968 0,0 z m 23.139,6.022 c 2.438,0.729 4.779,1.461 7.011,2.188 l 2.429,-8.546 -1.1,-0.314 -2.121,7.59 c -1.915,-0.617 -3.907,-1.238 -5.97,-1.856 l -0.249,0.938 0,0 z m -24.166,-15.574 c 0.939,0 1.705,0.766 1.705,1.705 0,0.938 -0.766,1.704 -1.705,1.704 -0.938,0 -1.704,-0.766 -1.704,-1.704 -0.001,-0.939 0.765,-1.705 1.704,-1.705 l 0,0 z m -96.433,-1.894 c 0.939,0 1.705,0.766 1.705,1.705 0,0.938 -0.766,1.704 -1.705,1.704 -0.939,0 -1.705,-0.766 -1.705,-1.704 0,-0.939 0.766,-1.705 1.705,-1.705 l 0,0 z"
   id="path39"
   style="fill-rule:evenodd" />
	<polygon
   points="298.625,415.451 298.625,416.51 297.567,416.51 289.646,416.51 288.588,416.51 288.588,415.451 288.588,411.491 288.588,410.432 289.646,410.432 289.646,410.432 297.567,410.432 298.625,410.432 298.625,411.491 "
   id="polygon41" />
	<polygon
   points="289.646,411.491 289.646,411.491 297.568,411.491 297.568,415.451 289.646,415.451 "
   id="polygon43"
   style="fill:#fcca2f;fill-rule:evenodd" />
</g>
</svg>