<?xml version="1.0" encoding="utf-8"?>
<!-- Generator: Adobe Illustrator 26.5.0, SVG Export Plug-In . SVG Version: 6.00 Build 0)  -->
<svg version="1.1" xmlns="http://www.w3.org/2000/svg" xmlns:xlink="http://www.w3.org/1999/xlink" x="0px" y="0px"
	 viewBox="0 0 70 70" style="enable-background:new 0 0 70 70;" xml:space="preserve">
<style type="text/css">
	.st0{fill:#724424;}
	.st1{fill:#4F2F17;}
	.st2{fill:#E79032;}
	.st3{fill:#271D10;}
	.st4{fill:#BF6D20;}
	.st5{fill:#BD5922;}
	.st6{fill:#BD5823;}
	.st7{fill:#33302D;}
</style>
<g id="Poop_00000098209397488899285240000011106758874385278371_">
	<g id="Poop">
		<g>
			<rect x="35" y="26" class="st0" width="2" height="2"/>
			<rect x="34" y="28" class="st0" width="2" height="2"/>
			<rect x="32" y="30" class="st0" width="2" height="2"/>
			<rect x="19" y="46" class="st0" width="2" height="2"/>
			<rect x="20" y="44" class="st0" width="2" height="2"/>
			<rect x="32" y="30" class="st0" width="2" height="2"/>
			<rect x="24" y="40" class="st0" width="2" height="2"/>
			<rect x="22" y="42" class="st0" width="2" height="2"/>
			<rect x="24" y="38" class="st0" width="2" height="2"/>
			<rect x="26" y="36" class="st0" width="2" height="2"/>
			<rect x="28" y="34" class="st0" width="2" height="2"/>
			<rect x="30" y="32" class="st0" width="2" height="2"/>
			<rect x="44" y="36" class="st0" width="2" height="2"/>
			<rect x="42" y="34" class="st0" width="2" height="2"/>
			<rect x="40" y="32" class="st0" width="2" height="2"/>
			<rect x="38" y="30" class="st0" width="2" height="2"/>
			<rect x="36" y="28" class="st0" width="2" height="2"/>
			<rect x="21" y="56" class="st0" width="2" height="2"/>
			<rect x="20" y="54" class="st0" width="2" height="2"/>
			<rect x="19" y="52" class="st0" width="2" height="2"/>
			<rect x="18" y="50" class="st0" width="2" height="2"/>
			<rect x="18" y="48" class="st0" width="2" height="2"/>
			<rect x="50" y="54" class="st0" width="2" height="2"/>
			<rect x="51" y="52" class="st0" width="2" height="2"/>
			<rect x="52" y="50" class="st0" width="2" height="2"/>
			<rect x="52" y="48" class="st0" width="2" height="2"/>
			<rect x="51" y="46" class="st0" width="2" height="2"/>
			<rect x="50" y="44" class="st0" width="2" height="2"/>
			<rect x="48" y="42" class="st0" width="2" height="2"/>
			<rect x="46" y="42" class="st0" width="2" height="2"/>
			<rect x="46" y="40" class="st0" width="2" height="2"/>
			<rect x="46" y="38" class="st0" width="2" height="2"/>
			<rect x="49" y="56" class="st0" width="2" height="2"/>
			<polygon class="st0" points="36,27 56,49.1 50.4,58 21.6,58 16,49.1 			"/>
		</g>
		<rect x="21" y="58" class="st1" width="30" height="2"/>
		<rect x="51" y="56" class="st1" width="2" height="2"/>
		<rect x="19" y="56" class="st1" width="2" height="2"/>
		<rect x="54" y="48" class="st1" width="2" height="4"/>
		<rect x="53" y="52" class="st1" width="2" height="2"/>
		<rect x="52" y="54" class="st1" width="2" height="2"/>
		<rect x="17" y="46" class="st1" width="2" height="2"/>
		<rect x="16" y="48" class="st1" width="2" height="4"/>
		<rect x="17" y="52" class="st1" width="2" height="2"/>
		<rect x="18" y="54" class="st1" width="2" height="2"/>
		<rect x="18" y="44" class="st1" width="2" height="2"/>
		<rect x="20" y="42" class="st1" width="2" height="2"/>
		<rect x="22" y="38" class="st1" width="2" height="4"/>
		<rect x="53" y="46" class="st1" width="2" height="2"/>
		<rect x="52" y="44" class="st1" width="2" height="2"/>
		<rect x="50" y="42" class="st1" width="2" height="2"/>
		<rect x="48" y="38" transform="matrix(-1 -1.224647e-16 1.224647e-16 -1 98 80)" class="st1" width="2" height="4"/>
		<rect x="26" y="34" class="st1" width="2" height="2"/>
		<rect x="24" y="36" class="st1" width="2" height="2"/>
		<rect x="46" y="36" class="st1" width="2" height="2"/>
		<rect x="44" y="34" class="st1" width="2" height="2"/>
		<rect x="28" y="32" class="st1" width="2" height="2"/>
		<rect x="32" y="28" class="st1" width="2" height="2"/>
		<rect x="21" y="43" class="st1" width="2" height="2"/>
		<rect x="22" y="44" class="st1" width="2" height="2"/>
		<rect x="42" y="32" class="st1" width="2" height="2"/>
		<rect x="21" y="25" class="st1" width="2" height="2"/>
		<rect x="40" y="30" class="st1" width="2" height="2"/>
		<rect x="38" y="28" class="st1" width="2" height="2"/>
		<rect x="34" y="26" class="st1" width="1" height="2"/>
		<rect x="37" y="26" class="st1" width="1" height="2"/>
		<rect x="35" y="24" class="st1" width="2" height="2"/>
		<rect x="23" y="45" class="st1" width="2" height="2"/>
		<rect x="24" y="46" class="st1" width="4" height="2"/>
		<rect x="49" y="43" transform="matrix(-1 -1.224647e-16 1.224647e-16 -1 100 88)" class="st1" width="2" height="2"/>
		<rect x="48" y="44" transform="matrix(-1 -1.224647e-16 1.224647e-16 -1 98 90)" class="st1" width="2" height="2"/>
		<rect x="47" y="45" transform="matrix(-1 -1.224647e-16 1.224647e-16 -1 96 92)" class="st1" width="2" height="2"/>
		<rect x="44" y="46" transform="matrix(-1 -1.224647e-16 1.224647e-16 -1 92 94)" class="st1" width="4" height="2"/>
		<rect x="28" y="35" class="st1" width="2" height="2"/>
		<rect x="29" y="36" class="st1" width="4" height="2"/>
		<rect x="42" y="35" transform="matrix(-1 -1.224647e-16 1.224647e-16 -1 86 72)" class="st1" width="2" height="2"/>
		<rect x="39" y="36" transform="matrix(-1 -1.224647e-16 1.224647e-16 -1 82 74)" class="st1" width="4" height="2"/>
		<rect x="23" y="15" class="st1" width="2" height="2"/>
		<rect x="21" y="17" class="st1" width="2" height="2"/>
		<rect x="19" y="19" class="st1" width="2" height="2"/>
		<rect x="21" y="21" class="st1" width="2" height="2"/>
		<rect x="23" y="23" class="st1" width="2" height="2"/>
		<rect x="35" y="17" class="st1" width="2" height="2"/>
		<rect x="37" y="7" class="st1" width="2" height="2"/>
		<rect x="35" y="9" class="st1" width="2" height="2"/>
		<rect x="33" y="11" class="st1" width="2" height="2"/>
		<rect x="37" y="15" class="st1" width="2" height="2"/>
		<rect x="35" y="13" class="st1" width="2" height="2"/>
		<rect x="47" y="27" class="st1" width="2" height="2"/>
		<rect x="49" y="17" class="st1" width="2" height="2"/>
		<rect x="47" y="19" class="st1" width="2" height="2"/>
		<rect x="45" y="21" class="st1" width="2" height="2"/>
		<rect x="49" y="25" class="st1" width="2" height="2"/>
		<rect x="47" y="23" class="st1" width="2" height="2"/>
		<rect x="30" y="30" class="st1" width="2" height="2"/>
	</g>
</g>
<g id="Dog">
</g>
<g id="Title">
</g>
</svg>
